<svg width="166" height="24" viewBox="0 0 166 24" fill="none" xmlns="http://www.w3.org/2000/svg">
<path d="M0 12C0 16.7427 1.90981 24 14.1326 24C26.3554 24 28.2653 16.7427 28.2653 12C28.2653 7.25729 26.3554 0 14.1326 0C1.90981 0 0 7.25729 0 12ZM6.55703 12C6.55703 8.46684 8.5305 4.32891 14.1326 4.32891C19.7347 4.32891 21.7082 8.46684 21.7082 12C21.7082 15.5332 19.7347 19.6711 14.1326 19.6711C8.5305 19.6711 6.55703 15.5332 6.55703 12Z" fill="#3E61F4"/>
<path d="M45.2415 23.3634H50.8436V12C50.8436 6.97082 46.4192 5.85676 43.5226 5.85676C40.2441 5.85676 37.5704 7.35278 36.5518 8.78515H36.4881V6.30239H31.077V23.3634H36.6791V15.1194C36.6791 11.4907 38.8754 10.1857 41.4855 10.1857C44.0001 10.1857 45.2415 11.3316 45.2415 13.687V23.3634Z" fill="#3E61F4"/>
<path d="M60.0811 14.9284C60.0811 11.6817 62.532 9.99469 65.3331 9.99469C68.1659 9.99469 70.6169 11.6817 70.6169 14.9284C70.6169 18.1751 68.1659 19.8621 65.3331 19.8621C62.532 19.8621 60.0811 18.1751 60.0811 14.9284ZM54.6699 23.3634H60.0811V21.2308H60.1447C62.2773 23.5225 64.1553 24 66.5108 24C72.0492 24 76.41 21.008 76.41 15.0239C76.41 9.48541 72.272 5.85676 66.8927 5.85676C63.7415 5.85676 61.4179 6.87533 60.3357 8.40318H60.272V0.254642H54.6699V23.3634Z" fill="#3E61F4"/>
<path d="M78.6483 14.8329C78.6483 21.2626 83.1682 24 89.9162 24C96.6642 24 101.184 21.2626 101.184 14.8329C101.184 8.40318 96.6642 5.66578 89.9162 5.66578C83.1682 5.66578 78.6483 8.40318 78.6483 14.8329ZM84.4414 14.8329C84.4414 11.4907 86.4467 9.61273 89.9162 9.61273C93.3857 9.61273 95.391 11.4907 95.391 14.8329C95.391 18.1751 93.3857 20.0531 89.9162 20.0531C86.4467 20.0531 84.4414 18.1751 84.4414 14.8329Z" fill="#3E61F4"/>
<path d="M118.701 16.4562C118.701 19.321 115.55 20.6897 112.717 20.6897C110.616 20.6897 109.184 19.8302 109.184 18.3024C109.184 16.7745 110.17 16.2334 112.144 16.0743L115.391 15.7878C116.505 15.6923 117.651 15.565 118.701 15.0557V16.4562ZM109.693 11.5225C110.489 9.16711 111.73 8.97613 114.117 8.97613C117.364 8.97613 118.51 9.64456 118.51 11.0133C118.51 12.382 117.937 12.6684 116.218 12.7958L110.266 13.2095C106.86 13.4324 103.2 14.3236 103.2 18.4615C103.2 22.4403 106.319 24 110.775 24C113.29 24 116.855 23.4589 118.765 21.5491C118.796 22.1538 118.956 22.7586 119.147 23.3634H124.749C124.367 22.504 124.112 21.4218 124.112 19.9257V11.4589C124.112 8.27586 122.393 5.66578 114.372 5.66578C109.788 5.66578 104.95 6.27056 104.282 11.5225H109.693Z" fill="#3E61F4"/>
<path d="M127.811 23.3634H133.413V16.0106C133.413 12.7003 135.228 10.7586 139.047 10.7586C140.098 10.7586 141.116 10.9814 142.135 11.2679V6.01592C141.498 5.88859 140.734 5.85676 140.098 5.85676C136.915 5.85676 135.323 7.03448 133.286 9.64456H133.222V6.30239H127.811V23.3634Z" fill="#3E61F4"/>
<path d="M149.314 14.9284C149.314 11.6817 151.765 9.99469 154.598 9.99469C157.399 9.99469 159.85 11.6817 159.85 14.9284C159.85 18.1751 157.399 19.8621 154.598 19.8621C151.765 19.8621 149.314 18.1751 149.314 14.9284ZM159.85 23.3634H165.261V0.254642H159.659V8.40318H159.595C158.513 6.87533 156.189 5.85676 153.038 5.85676C147.659 5.85676 143.521 9.48541 143.521 15.0239C143.521 20.9761 147.723 24 153.038 24C155.585 24 157.972 23.4271 159.786 21.2308H159.85V23.3634Z" fill="#3E61F4"/>
</svg>
