<svg width="156" height="14" viewBox="0 0 156 14" fill="none" xmlns="http://www.w3.org/2000/svg">
<path d="M73 6C73 8.37135 73.9549 12 80.0663 12C86.1777 12 87.1326 8.37135 87.1326 6C87.1326 3.62865 86.1777 0 80.0663 0C73.9549 0 73 3.62865 73 6ZM76.2785 6C76.2785 4.23342 77.2653 2.16446 80.0663 2.16446C82.8674 2.16446 83.8541 4.23342 83.8541 6C83.8541 7.76658 82.8674 9.83554 80.0663 9.83554C77.2653 9.83554 76.2785 7.76658 76.2785 6Z" fill="#3E61F4"/>
<path d="M95.6207 11.6817H98.4218V6C98.4218 3.48541 96.2096 2.92838 94.7613 2.92838C93.1221 2.92838 91.7852 3.67639 91.2759 4.39257H91.2441V3.15119H88.5385V11.6817H91.3396V7.55968C91.3396 5.74536 92.4377 5.09284 93.7427 5.09284C95 5.09284 95.6207 5.66578 95.6207 6.8435V11.6817Z" fill="#3E61F4"/>
<path d="M103.041 7.46419C103.041 5.84085 104.266 4.99735 105.667 4.99735C107.083 4.99735 108.308 5.84085 108.308 7.46419C108.308 9.08753 107.083 9.93104 105.667 9.93104C104.266 9.93104 103.041 9.08753 103.041 7.46419ZM100.335 11.6817H103.041V10.6154H103.072C104.139 11.7613 105.078 12 106.255 12C109.025 12 111.205 10.504 111.205 7.51194C111.205 4.74271 109.136 2.92838 106.446 2.92838C104.871 2.92838 103.709 3.43767 103.168 4.20159H103.136V0.127321H100.335V11.6817Z" fill="#3E61F4"/>
<path d="M112.324 7.41645C112.324 10.6313 114.584 12 117.958 12C121.332 12 123.592 10.6313 123.592 7.41645C123.592 4.20159 121.332 2.83289 117.958 2.83289C114.584 2.83289 112.324 4.20159 112.324 7.41645ZM115.221 7.41645C115.221 5.74536 116.223 4.80637 117.958 4.80637C119.693 4.80637 120.695 5.74536 120.695 7.41645C120.695 9.08753 119.693 10.0265 117.958 10.0265C116.223 10.0265 115.221 9.08753 115.221 7.41645Z" fill="#3E61F4"/>
<path d="M132.35 8.22812C132.35 9.66048 130.775 10.3448 129.358 10.3448C128.308 10.3448 127.592 9.91512 127.592 9.15119C127.592 8.38727 128.085 8.11671 129.072 8.03714L130.695 7.8939C131.252 7.84615 131.825 7.78249 132.35 7.52785V8.22812ZM127.846 5.76127C128.244 4.58355 128.865 4.48806 130.059 4.48806C131.682 4.48806 132.255 4.82228 132.255 5.50663C132.255 6.19098 131.968 6.33422 131.109 6.39788L128.133 6.60477C126.43 6.71618 124.6 7.1618 124.6 9.23077C124.6 11.2202 126.159 12 128.388 12C129.645 12 131.427 11.7294 132.382 10.7745C132.398 11.0769 132.478 11.3793 132.573 11.6817H135.374C135.183 11.252 135.056 10.7109 135.056 9.96287V5.72944C135.056 4.13793 134.197 2.83289 130.186 2.83289C127.894 2.83289 125.475 3.13528 125.141 5.76127H127.846Z" fill="#3E61F4"/>
<path d="M136.906 11.6817H139.707V8.00531C139.707 6.35013 140.614 5.37931 142.524 5.37931C143.049 5.37931 143.558 5.49072 144.067 5.63395V3.00796C143.749 2.9443 143.367 2.92838 143.049 2.92838C141.457 2.92838 140.662 3.51724 139.643 4.82228H139.611V3.15119H136.906V11.6817Z" fill="#3E61F4"/>
<path d="M147.657 7.46419C147.657 5.84085 148.883 4.99735 150.299 4.99735C151.7 4.99735 152.925 5.84085 152.925 7.46419C152.925 9.08753 151.7 9.93104 150.299 9.93104C148.883 9.93104 147.657 9.08753 147.657 7.46419ZM152.925 11.6817H155.631V0.127321H152.829V4.20159H152.798C152.257 3.43767 151.095 2.92838 149.519 2.92838C146.829 2.92838 144.761 4.74271 144.761 7.51194C144.761 10.4881 146.861 12 149.519 12C150.792 12 151.986 11.7135 152.893 10.6154H152.925V11.6817Z" fill="#3E61F4"/>
<path d="M2.21338 8.09424V11H0.854492V3.17969H3.84619C4.71989 3.17969 5.41276 3.40706 5.9248 3.86182C6.44043 4.31657 6.69824 4.91813 6.69824 5.6665C6.69824 6.43278 6.4458 7.02897 5.94092 7.45508C5.43962 7.88118 4.736 8.09424 3.83008 8.09424H2.21338ZM2.21338 7.00391H3.84619C4.32959 7.00391 4.6984 6.89111 4.95264 6.66553C5.20687 6.43636 5.33398 6.10693 5.33398 5.67725C5.33398 5.25472 5.20508 4.91813 4.94727 4.66748C4.68945 4.41325 4.33496 4.28255 3.88379 4.27539H2.21338V7.00391ZM14.1318 7.29395C14.1318 8.06022 13.9993 8.7334 13.7344 9.31348C13.4694 9.88997 13.0898 10.334 12.5957 10.6455C12.1051 10.9535 11.5394 11.1074 10.8984 11.1074C10.2646 11.1074 9.69889 10.9535 9.20117 10.6455C8.70703 10.334 8.32389 9.89176 8.05176 9.31885C7.7832 8.74593 7.64714 8.08529 7.64355 7.33691V6.89648C7.64355 6.13379 7.77783 5.46061 8.04639 4.87695C8.31852 4.29329 8.69987 3.84749 9.19043 3.53955C9.68457 3.22803 10.2503 3.07227 10.8877 3.07227C11.5251 3.07227 12.089 3.22624 12.5796 3.53418C13.0737 3.83854 13.4551 4.27897 13.7236 4.85547C13.9922 5.42839 14.1283 6.09619 14.1318 6.85889V7.29395ZM12.7729 6.88574C12.7729 6.01921 12.6082 5.35498 12.2788 4.89307C11.953 4.43115 11.4893 4.2002 10.8877 4.2002C10.3005 4.2002 9.84033 4.43115 9.50732 4.89307C9.1779 5.3514 9.0096 6.0013 9.00244 6.84277V7.29395C9.00244 8.15332 9.16895 8.81755 9.50195 9.28662C9.83854 9.7557 10.304 9.99023 10.8984 9.99023C11.5 9.99023 11.9619 9.76107 12.2842 9.30273C12.61 8.8444 12.7729 8.1748 12.7729 7.29395V6.88574ZM21.6191 9.06641L22.8223 3.17969H24.1704L22.3657 11H21.0659L19.5781 5.29053L18.0581 11H16.7529L14.9482 3.17969H16.2964L17.5103 9.05566L19.0034 3.17969H20.1421L21.6191 9.06641ZM29.7349 7.50879H26.5229V9.91504H30.2773V11H25.1641V3.17969H30.2397V4.27539H26.5229V6.43457H29.7349V7.50879ZM34.2573 7.98682H32.7427V11H31.3838V3.17969H34.1338C35.0361 3.17969 35.7326 3.382 36.2231 3.78662C36.7137 4.19124 36.959 4.77669 36.959 5.54297C36.959 6.06576 36.8319 6.50439 36.5776 6.85889C36.327 7.2098 35.9761 7.48014 35.5249 7.66992L37.2812 10.9302V11H35.8257L34.2573 7.98682ZM32.7427 6.89648H34.1392C34.5975 6.89648 34.9556 6.7819 35.2134 6.55273C35.4712 6.31999 35.6001 6.00309 35.6001 5.60205C35.6001 5.18311 35.4801 4.85905 35.2402 4.62988C35.0039 4.40072 34.6494 4.28255 34.1768 4.27539H32.7427V6.89648ZM42.8188 7.50879H39.6069V9.91504H43.3613V11H38.248V3.17969H43.3237V4.27539H39.6069V6.43457H42.8188V7.50879ZM44.4678 11V3.17969H46.7773C47.4684 3.17969 48.0807 3.33366 48.6143 3.6416C49.1514 3.94954 49.5667 4.38639 49.8604 4.95215C50.154 5.5179 50.3008 6.16602 50.3008 6.89648V7.28857C50.3008 8.02979 50.1522 8.68148 49.855 9.24365C49.5614 9.80583 49.1406 10.2391 48.5928 10.5435C48.0485 10.8478 47.4237 11 46.7183 11H44.4678ZM45.8267 4.27539V9.91504H46.7129C47.4255 9.91504 47.9715 9.69303 48.3511 9.24902C48.7342 8.80143 48.9294 8.16048 48.9365 7.32617V6.89111C48.9365 6.04248 48.7521 5.39437 48.3833 4.94678C48.0145 4.49919 47.4792 4.27539 46.7773 4.27539H45.8267ZM54.3936 11V3.17969H57.0737C57.9582 3.17969 58.6313 3.35693 59.0933 3.71143C59.5552 4.06592 59.7861 4.59408 59.7861 5.2959C59.7861 5.65397 59.6895 5.97624 59.4961 6.2627C59.3027 6.54915 59.0199 6.77116 58.6475 6.92871C59.07 7.04329 59.3958 7.25993 59.625 7.57861C59.8577 7.89372 59.9741 8.27327 59.9741 8.71729C59.9741 9.45133 59.7378 10.0153 59.2651 10.4092C58.7961 10.8031 58.1229 11 57.2456 11H54.3936ZM55.7524 7.47119V9.91504H57.2617C57.6878 9.91504 58.0208 9.80941 58.2607 9.59814C58.5007 9.38688 58.6206 9.09326 58.6206 8.71729C58.6206 7.90446 58.2052 7.4891 57.3745 7.47119H55.7524ZM55.7524 6.47217H57.0845C57.507 6.47217 57.8364 6.37728 58.0728 6.1875C58.3127 5.99414 58.4326 5.72201 58.4326 5.37109C58.4326 4.98438 58.3216 4.70508 58.0996 4.5332C57.8812 4.36133 57.5392 4.27539 57.0737 4.27539H55.7524V6.47217ZM63.5835 6.88574L65.3828 3.17969H66.8867L64.2656 8.12109V11H62.9014V8.12109L60.2749 3.17969H61.7842L63.5835 6.88574Z" fill="#3E61F4"/>
<path d="M2.21338 8.09424V11H0.854492V3.17969H3.84619C4.71989 3.17969 5.41276 3.40706 5.9248 3.86182C6.44043 4.31657 6.69824 4.91813 6.69824 5.6665C6.69824 6.43278 6.4458 7.02897 5.94092 7.45508C5.43962 7.88118 4.736 8.09424 3.83008 8.09424H2.21338ZM2.21338 7.00391H3.84619C4.32959 7.00391 4.6984 6.89111 4.95264 6.66553C5.20687 6.43636 5.33398 6.10693 5.33398 5.67725C5.33398 5.25472 5.20508 4.91813 4.94727 4.66748C4.68945 4.41325 4.33496 4.28255 3.88379 4.27539H2.21338V7.00391ZM14.1318 7.29395C14.1318 8.06022 13.9993 8.7334 13.7344 9.31348C13.4694 9.88997 13.0898 10.334 12.5957 10.6455C12.1051 10.9535 11.5394 11.1074 10.8984 11.1074C10.2646 11.1074 9.69889 10.9535 9.20117 10.6455C8.70703 10.334 8.32389 9.89176 8.05176 9.31885C7.7832 8.74593 7.64714 8.08529 7.64355 7.33691V6.89648C7.64355 6.13379 7.77783 5.46061 8.04639 4.87695C8.31852 4.29329 8.69987 3.84749 9.19043 3.53955C9.68457 3.22803 10.2503 3.07227 10.8877 3.07227C11.5251 3.07227 12.089 3.22624 12.5796 3.53418C13.0737 3.83854 13.4551 4.27897 13.7236 4.85547C13.9922 5.42839 14.1283 6.09619 14.1318 6.85889V7.29395ZM12.7729 6.88574C12.7729 6.01921 12.6082 5.35498 12.2788 4.89307C11.953 4.43115 11.4893 4.2002 10.8877 4.2002C10.3005 4.2002 9.84033 4.43115 9.50732 4.89307C9.1779 5.3514 9.0096 6.0013 9.00244 6.84277V7.29395C9.00244 8.15332 9.16895 8.81755 9.50195 9.28662C9.83854 9.7557 10.304 9.99023 10.8984 9.99023C11.5 9.99023 11.9619 9.76107 12.2842 9.30273C12.61 8.8444 12.7729 8.1748 12.7729 7.29395V6.88574ZM21.6191 9.06641L22.8223 3.17969H24.1704L22.3657 11H21.0659L19.5781 5.29053L18.0581 11H16.7529L14.9482 3.17969H16.2964L17.5103 9.05566L19.0034 3.17969H20.1421L21.6191 9.06641ZM29.7349 7.50879H26.5229V9.91504H30.2773V11H25.1641V3.17969H30.2397V4.27539H26.5229V6.43457H29.7349V7.50879ZM34.2573 7.98682H32.7427V11H31.3838V3.17969H34.1338C35.0361 3.17969 35.7326 3.382 36.2231 3.78662C36.7137 4.19124 36.959 4.77669 36.959 5.54297C36.959 6.06576 36.8319 6.50439 36.5776 6.85889C36.327 7.2098 35.9761 7.48014 35.5249 7.66992L37.2812 10.9302V11H35.8257L34.2573 7.98682ZM32.7427 6.89648H34.1392C34.5975 6.89648 34.9556 6.7819 35.2134 6.55273C35.4712 6.31999 35.6001 6.00309 35.6001 5.60205C35.6001 5.18311 35.4801 4.85905 35.2402 4.62988C35.0039 4.40072 34.6494 4.28255 34.1768 4.27539H32.7427V6.89648ZM42.8188 7.50879H39.6069V9.91504H43.3613V11H38.248V3.17969H43.3237V4.27539H39.6069V6.43457H42.8188V7.50879ZM44.4678 11V3.17969H46.7773C47.4684 3.17969 48.0807 3.33366 48.6143 3.6416C49.1514 3.94954 49.5667 4.38639 49.8604 4.95215C50.154 5.5179 50.3008 6.16602 50.3008 6.89648V7.28857C50.3008 8.02979 50.1522 8.68148 49.855 9.24365C49.5614 9.80583 49.1406 10.2391 48.5928 10.5435C48.0485 10.8478 47.4237 11 46.7183 11H44.4678ZM45.8267 4.27539V9.91504H46.7129C47.4255 9.91504 47.9715 9.69303 48.3511 9.24902C48.7342 8.80143 48.9294 8.16048 48.9365 7.32617V6.89111C48.9365 6.04248 48.7521 5.39437 48.3833 4.94678C48.0145 4.49919 47.4792 4.27539 46.7773 4.27539H45.8267ZM54.3936 11V3.17969H57.0737C57.9582 3.17969 58.6313 3.35693 59.0933 3.71143C59.5552 4.06592 59.7861 4.59408 59.7861 5.2959C59.7861 5.65397 59.6895 5.97624 59.4961 6.2627C59.3027 6.54915 59.0199 6.77116 58.6475 6.92871C59.07 7.04329 59.3958 7.25993 59.625 7.57861C59.8577 7.89372 59.9741 8.27327 59.9741 8.71729C59.9741 9.45133 59.7378 10.0153 59.2651 10.4092C58.7961 10.8031 58.1229 11 57.2456 11H54.3936ZM55.7524 7.47119V9.91504H57.2617C57.6878 9.91504 58.0208 9.80941 58.2607 9.59814C58.5007 9.38688 58.6206 9.09326 58.6206 8.71729C58.6206 7.90446 58.2052 7.4891 57.3745 7.47119H55.7524ZM55.7524 6.47217H57.0845C57.507 6.47217 57.8364 6.37728 58.0728 6.1875C58.3127 5.99414 58.4326 5.72201 58.4326 5.37109C58.4326 4.98438 58.3216 4.70508 58.0996 4.5332C57.8812 4.36133 57.5392 4.27539 57.0737 4.27539H55.7524V6.47217ZM63.5835 6.88574L65.3828 3.17969H66.8867L64.2656 8.12109V11H62.9014V8.12109L60.2749 3.17969H61.7842L63.5835 6.88574Z" fill="black" fill-opacity="0.5"/>
</svg>
